<svg xmlns="https://www.w3.org/2000/svg" width="190" height="95" viewBox="0 0 190 95">
  <g id="Group_66" data-name="Group 66" transform="translate(-277 -2387)">
    <g id="Group_65" data-name="Group 65" transform="translate(0 48)">
      <path id="Path_1" data-name="Path 1" d="M463.627,44.1c.233-.079.467-.156.7-.235,2.451,1.161,4.912,2.3,7.365,3.452,1.193-.7,2.369-1.434,3.581-2.1a4.244,4.244,0,0,1,2.662-.613.949.949,0,0,1,.725,1.218,4.167,4.167,0,0,1-1.832,2.028c-1.193.735-2.421,1.408-3.652,2.077-.312,2.768-.625,5.54-.872,8.314-.317.222-.69.562-1.01.147-.26-2.334-.386-4.685-.585-7.027q-2.648,1.263-5.394,2.289-.22,1.055-.444,2.107c-.145.071-.434.212-.581.28a8.3,8.3,0,0,1-.549-2.336c-.637-.635-1.625-1.009-1.954-1.894.12-.071.356-.209.474-.28a21.992,21.992,0,0,1,2.3.769c1.507-1.252,3.065-2.441,4.681-3.544-1.87-1.361-3.738-2.723-5.618-4.067C463.624,44.535,463.624,44.24,463.627,44.1Z" transform="translate(-104.492 2295.14)" fill="#707070"/>
      <path id="Path_2" data-name="Path 2" d="M136.413,98.93c7.792-2.571,15.758-4.653,23.339-7.85.132.261.264.522.394.784-7.673,3.214-15.727,5.309-23.624,7.85a9.055,9.055,0,0,1,.057,6.651A15.674,15.674,0,0,1,129.3,113.9c-.532.383-1.092-.68-.514-.94a16.917,16.917,0,0,0,5.828-6.249,7.093,7.093,0,0,0,.075-6.373c-3.6,1.216-7.138,2.637-10.618,4.181a37.278,37.278,0,0,0-6.53,3.578,6.15,6.15,0,0,0-2.6,4.332,2.743,2.743,0,0,0,1.371,2.593A7.914,7.914,0,0,0,120.1,116a13.771,13.771,0,0,0,5.74-1.579,1.567,1.567,0,0,1,1.719.03,29.213,29.213,0,0,1-6.6,2.622,8.454,8.454,0,0,1-4.929-.051,4.4,4.4,0,0,1-2.581-5.217,8.033,8.033,0,0,1,2.748-3.576,35.09,35.09,0,0,1,6.91-4.059A100.561,100.561,0,0,1,134.3,99.633a8.6,8.6,0,0,0-5.367-3.39,25.473,25.473,0,0,0-10.486.274,55.531,55.531,0,0,0-10.027,2.934,43.452,43.452,0,0,0-11.333,6.39c-3.109,2.5-5.908,5.813-6.639,9.891-.48,2.736.7,5.416,2.13,7.658,3.182,4.854,7.568,8.675,11.476,12.888a66.175,66.175,0,0,1,5.857,6.841c2.908-1.479,5.908-2.759,8.933-3.96a50.349,50.349,0,0,1,8.763-2.642c.235-.077.558-.081.667-.355.6-1.032,1.019-2.156,1.526-3.234.277.111.688.092.784.451a12.846,12.846,0,0,1-.637,2.68c.3.079.669.056.9.31,0,.165.013.494.017.656a14.785,14.785,0,0,1,5.346-3.68,3.212,3.212,0,0,1,3.656.827c.962,1.184.761,2.862.294,4.213a17.044,17.044,0,0,0,5.3-1.6,1.989,1.989,0,0,0,.813-.876,12.877,12.877,0,0,1,3.39-3.569,6.822,6.822,0,0,1,3.576-1.507,2.347,2.347,0,0,1,2.065,1.079,2.583,2.583,0,0,1-.113,2.567.554.554,0,0,1-.73.295c-.367-.507-.256-1.18-.459-1.75-.61-.4-1.319-.021-1.891.267a12.1,12.1,0,0,0-4.312,4.161,4.76,4.76,0,0,0-.644,2.05,7.1,7.1,0,0,0,3.082-.829,15.17,15.17,0,0,0,3.769-2.36,31.927,31.927,0,0,1,2.576-3.135.985.985,0,0,1,1.444,1.24c-1.6,2.227-3.239,4.439-4.623,6.818a7.177,7.177,0,0,0-1.113,2.875c.17.616.912.432,1.373.37a13.63,13.63,0,0,0,4.973-2.6,32.775,32.775,0,0,0,5.736-5.471c1.465-.9,2.832-2.152,4.578-2.432a2.112,2.112,0,0,1,2.344,2.409c-.155,1.075-1.212,2.33-2.365,1.941-.017-.846.857-1.569.449-2.4a9.877,9.877,0,0,0-5.224,4.542c-.564,1.128-1.134,2.52-.6,3.766a1.912,1.912,0,0,0,2.05.825,13.825,13.825,0,0,0,5.782-2.131,30.436,30.436,0,0,0,6.09-4.911A15.861,15.861,0,0,0,178.9,135.6a10.333,10.333,0,0,1,4.43-4.033,1.918,1.918,0,0,1,2.526.8,2.4,2.4,0,0,1-.623,2.652,9.466,9.466,0,0,1-5.071,2.71,5.569,5.569,0,0,0-.375,4.039c.275.7,1.107.752,1.74.737a19.087,19.087,0,0,0,7.87-2.6,31.01,31.01,0,0,0,4.26-2.736c-.187-2.092.023-4.5,1.608-6.023a3.4,3.4,0,0,1,4.578-.41c1.379,1.225,1.08,3.524-.029,4.826-.189.331-.541.212-.834.171-.128-1.073.69-2.146.128-3.182-.413-.866-1.589-.716-2.212-.186-1.13.868-1.262,2.458-1.214,3.787.172,2.184,1.143,4.187,1.734,6.271a36.368,36.368,0,0,0,8.222-3.02c.6-.267.841-.917,1.132-1.462.7-1.419,1.467-2.8,2.067-4.27.134-.222.164-.569.432-.669.228-.024.635.026.652.331a9.44,9.44,0,0,1-.654,2.879c.3.113.593.237.889.363a6.544,6.544,0,0,1-.748,1.178,20.888,20.888,0,0,1,5.606-4.206,3.585,3.585,0,0,1,4.073.43c1.1,1.18.973,2.986.444,4.407a14.115,14.115,0,0,0,4.6-1.336c.447-.654.8-1.37,1.27-2.009a4.481,4.481,0,0,1,1.228-4.45,7.834,7.834,0,0,1,5.417-2.285,3,3,0,0,1,2.826,1.522,6.287,6.287,0,0,1-.4,5,40.44,40.44,0,0,0,9.079-7.485A126.013,126.013,0,0,0,254.014,114.2a221.948,221.948,0,0,0-31.592,2.048c-3.356.434-6.723.848-10.031,1.579a15.888,15.888,0,0,1-2.109.515.645.645,0,0,1-.216-1.176,16.683,16.683,0,0,1,3.4-1.663,8.008,8.008,0,0,1,2.455-.718c.522-.071.551.575.709.921,5.423-.868,10.882-1.464,16.35-1.945a212.539,212.539,0,0,1,21.945-.9c1.815-3.247,3.581-6.527,5.585-9.66a30.006,30.006,0,0,1,2.7-3.924.959.959,0,0,1,1.662.549,1.045,1.045,0,0,1-.205.752,122.875,122.875,0,0,0-7.679,12.366,66.949,66.949,0,0,1,11.237,1.114c.914.126.551,1.616-.335,1.291a80.318,80.318,0,0,0-11.668-1.109C252.1,121.72,248.2,129.329,244.8,137.17a111.022,111.022,0,0,0-4.748,12.668c-.382,1.25-.692,2.522-1.061,3.779a1.019,1.019,0,0,1,1.252.284,4.429,4.429,0,0,1-.543,1.631c-.593,1.252-1.094,2.55-1.709,3.789-.3.669-1.39.182-1.2-.5a54.731,54.731,0,0,1,3.092-13.358,213.229,213.229,0,0,1,11.272-25.583,100.055,100.055,0,0,1-7.834,9.15c-2.857,2.8-5.845,5.61-9.518,7.254-1.375,2.5-3.21,4.922-5.811,6.164a3.084,3.084,0,0,1-3.656-.338c-1-1-.845-2.573-.608-3.851a23.761,23.761,0,0,1-4.878,1.1,13.124,13.124,0,0,1-3.084,2.644,7.836,7.836,0,0,1-6.132.821,1.775,1.775,0,0,1-1.394-1.834c.178-1.06,1.195-1.618,2.071-2.013,2.069-.94,4.384-.6,6.574-.528a3.009,3.009,0,0,0,1.092-2.915c-.231-.791-1.174-.96-1.87-.855a9.153,9.153,0,0,0-4.379,2.353,46.5,46.5,0,0,0-4.69,4.6c-1.054,1.945-1.992,3.956-3.04,5.905-3.3,6.273-6.855,12.407-10.74,18.321-.631.9-1.342,1.979-2.522,2.12a1.053,1.053,0,0,1-1.069-1.246,16.852,16.852,0,0,1,1.717-5.142,91.424,91.424,0,0,1,10.094-14.95,21.513,21.513,0,0,0,2.352-3.144c.526-1,1.055-2.007,1.593-3.005a53.02,53.02,0,0,1-7.813,2.8,7.775,7.775,0,0,1-1.623,6.544c-1.566,1.81-4.606,2.537-6.52.883a3.373,3.373,0,0,1-.124-4.879c1.623-1.59,3.864-2.206,5.964-2.832-.472-1.6-1.034-3.174-1.455-4.792a53.184,53.184,0,0,1-8.746,5.008,10.329,10.329,0,0,1-4.409,1.1,3.129,3.129,0,0,1-2.767-1.735,7.768,7.768,0,0,1-.409-3.345,37.3,37.3,0,0,1-8.931,6.551,7.159,7.159,0,0,1-4.7,1,3.429,3.429,0,0,1-2.474-2.535,7.028,7.028,0,0,1,.4-3.9,31.637,31.637,0,0,1-7.065,5.251,3.691,3.691,0,0,1-3.207.331,2.387,2.387,0,0,1-1.13-2.477,12.409,12.409,0,0,1,1.47-3.725,11.739,11.739,0,0,1-4.1,1.678,2.254,2.254,0,0,1-2.361-.93,4,4,0,0,1-.124-2.573,20.355,20.355,0,0,1-5.5,1.359c-.417-.006-.631.412-.906.663a8.84,8.84,0,0,1-6.409,3.174,4.513,4.513,0,0,1-3.243-.889c-.725-.692-.394-2.321.616-2.413l-.317-.306c-.558.934-1.547,1.494-2.088,2.436a223.9,223.9,0,0,1-13.605,23.952c-.631.913-1.377,1.99-2.566,2.1a1.148,1.148,0,0,1-.973-1.513,21.845,21.845,0,0,1,2.778-6.931,114.774,114.774,0,0,1,10.853-15.2c1.285-2.216,2.413-4.527,3.643-6.777a71.454,71.454,0,0,0-17.182,6.286c2.05,3.048,3.631,6.677,3.251,10.451a23.592,23.592,0,0,1-7.648,14.072,29.61,29.61,0,0,1-15.658,7.472,12.314,12.314,0,0,1-9.211-2.1,5.764,5.764,0,0,1-2.029-6.512,17.974,17.974,0,0,1,3.646-5.264,77.859,77.859,0,0,1,14.7-11.712q5.06-3.238,10.354-6.076c-3.742-5.038-8.516-9.13-12.694-13.77a36.439,36.439,0,0,1-5.822-8.147,11.379,11.379,0,0,1-.931-7.6c1.013-4.463,4.1-8.124,7.61-10.823a44.23,44.23,0,0,1,10.327-5.907,56.832,56.832,0,0,1,15.287-4.082,20.047,20.047,0,0,1,9.983,1.1,9.222,9.222,0,0,1,4.3,3.574c.157.15.268.573.553.406m92.419,31.185a4.659,4.659,0,0,0-2.692,3.984,6.841,6.841,0,0,1,2.333-1.686.984.984,0,0,1,1,1.515c-.658.645-1.4,1.2-2,1.909,1.832.934,3.958.391,5.74-.4a8.36,8.36,0,0,0,1.115-4.23,1.972,1.972,0,0,0-1.134-1.791,5.764,5.764,0,0,0-4.363.7m-48,6.5a5.794,5.794,0,0,0,3.323-3.159,8.374,8.374,0,0,0-3.323,3.159m-45.737-1.43c-2.04.881-3.482,2.663-5.216,3.99.1.083.2.169.3.252,2.145-1.479,4.866-1.071,7.3-.958a3.665,3.665,0,0,0,1.143-1.881,1.535,1.535,0,0,0-.646-1.763,3.757,3.757,0,0,0-2.887.359m91.758,1.477a8.7,8.7,0,0,0-1.293,3.1,1.175,1.175,0,0,0,.631,1.306,3,3,0,0,0,2.721-.389,12.266,12.266,0,0,0,3.417-3.8,7.092,7.092,0,0,1-5.476-.224m-97.339.729a10.963,10.963,0,0,0-.61,1.46c.618-.622,1.243-1.237,1.916-1.8-.415.158-.929.09-1.306.34m2.189,2.481a3.331,3.331,0,0,0-1.212,1.1,7.364,7.364,0,0,0,6.052-1.641c-1.614.026-3.354-.257-4.841.543m79.69-.147a4.175,4.175,0,0,0-1.564,1.218,7.22,7.22,0,0,0,6.1-1.622c-1.514.039-3.107-.216-4.541.4m-20.339,6.125a2.323,2.323,0,0,0-.941,2.473,2.027,2.027,0,0,0,1.541,1.257,3.249,3.249,0,0,0,2.532-.953,5.458,5.458,0,0,0,1.323-4.732,15.606,15.606,0,0,0-4.455,1.956m-99.381,9.609a63.519,63.519,0,0,0-6.059,5.157,23.8,23.8,0,0,0-4.564,5.589,4.7,4.7,0,0,0-.635,3.268A5.613,5.613,0,0,0,83,172.51a10.078,10.078,0,0,0,5.459,1.323,23.583,23.583,0,0,0,9.165-2.451,27.7,27.7,0,0,0,7.908-5.64,21.063,21.063,0,0,0,5.84-11.246c.505-3.473-1.138-6.8-3.036-9.562a118.4,118.4,0,0,0-16.668,10.526m101.8,4.21a21.692,21.692,0,0,0-2.49,6.029c1.235-1.844,2.381-3.749,3.5-5.666,2.218-3.819,4.444-7.636,6.566-11.511a82.556,82.556,0,0,0-7.578,11.148M119.4,151.477a70.562,70.562,0,0,0-6.423,10.334,15.584,15.584,0,0,0-1.358,3.8c1.034-1.419,1.91-2.947,2.818-4.45,2.421-4.144,4.849-8.284,7.147-12.5A35.241,35.241,0,0,0,119.4,151.477Z" transform="translate(198.244 2258.012)" fill="#707070"/>
    </g>
  </g>
</svg>
